# xmcd
#
# Track frame offsets:
#  150
#  13408
#  26165
#  39820
#  53950
#  70180
#  85615
#  99330
#  114095
#  127100
#  139780
#  154275
#  166875
#  180348
#  194283
#  209138
#  221218
#  234033
#  245388
#  257015
#
# Disc length: 3598 seconds
#
# Revision: 3
# Processed by: cddbd v1.5.1PL2 Copyright (c) Steve Scherf et al.
# Submitted via: Collectorz.com_Music_Collector 6.11
#
DISCID=120e0c14
DTITLE=Kenny Baker - Louis Armstrong Vol. 8
DYEAR=1900
DGENRE=Blues -> General Blues
TTITLE0=Mahagony Hall Stomp
TTITLE1=Swing You Cats
TTITLE2=Honey, Don't You Love Me Anymore
TTITLE3=Massissippi Basin
TTITLE4=Laughin' Louis
TTITLE5=Tomorrow Night
TTITLE6=Dusky Stevedore
TTITLE7=There's A Cabin In The Pines
TTITLE8=Mighty River
TTITLE9=Sweet Sue, Just Jou
TTITLE10=I Wonder Who
TTITLE11=St Louis Blues
TTITLE12=Don't Play Me Cheap
TTITLE13=I'm The Mood For Love
TTITLE14=You're My Lucky Star
TTITLE15=La Cucaracha
TTITLE16=Got A Bran' New Suit
TTITLE17=I've Got My Fingers Crossed
TTITLE18=Old Man Mose
TTITLE19=I'm Shooting High
EXTD=
EXTT0=
EXTT1=
EXTT2=
EXTT3=
EXTT4=
EXTT5=
EXTT6=
EXTT7=
EXTT8=
EXTT9=
EXTT10=
EXTT11=
EXTT12=
EXTT13=
EXTT14=
EXTT15=
EXTT16=
EXTT17=
EXTT18=
EXTT19=
PLAYORDER=
